<svg xmlns="http://www.w3.org/2000/svg" width="225.62" height="733.07" viewBox="0 0 225.62 733.07"><g id="Layer_2" data-name="Layer 2"><g id="Layer_1-2" data-name="Layer 1"><path d="M138.3,664.64l-8.72,28.67-34.86,1.26-2.33-43.11Z" fill="#f77f89" fill-rule="evenodd"/><path d="M93.19,689.61v37.67l94.26,2.13s-2.68-26.92-50.88-27.36c.18-11.83.2-12.44.2-12.44Z" fill="#6367fd" fill-rule="evenodd"/><path d="M50.2,670.06l.65,28.23,36.4,1.27,9.46-31.42Z" fill="#f77f89" fill-rule="evenodd"/><path d="M105.25,0c39.61,0,47.81,37.63,47.83,51.45,0,13.17-2.57,15.18-2.48,28.53.06,10.14,3,17.24,2.73,23-1.56,30-42.12,38.65-53.7,38.82s-62-9.59-62-32.91c0-16.27,10.35-42.29,10.07-60.36C47.08,11,78.46,0,105.25,0Z" fill-rule="evenodd"/><path d="M50,693.28l.54,37.7,92.53,2.09s0-27.49-50.68-28V693.28Z" fill="#6367fd" fill-rule="evenodd"/><path d="M40.92,410.5l.24,263.73,66.12-1.44,1-12.21,42.64,5.75,27.06-275-14.61-70.42L66.8,318.27Z" fill="#3b4161" fill-rule="evenodd"/><path d="M118.82,522.56l39.65,66.63-7.53,76.44-42.71-5Z" fill="#15192c" fill-rule="evenodd"/><path d="M91,342h70.24l9.51-103.77-12.69-79.52-24-23.11L110,124.86,66.55,131.5Z" fill="#f7d167" fill-rule="evenodd"/><path d="M63.38,673.75l.46-280.53" fill="none" stroke="#737999" stroke-linecap="round" stroke-linejoin="round" stroke-width="1.7"/><path d="M78.93,123.58c-16.42.45-65.45,18.25-72.61,36.31C.88,173.59-2.85,297.55,9.93,303.6a13.88,13.88,0,0,0,2.56.94c-.77,3.8-8.13,91.79-6.26,99.11s6.78,18.4,13.89,18C47.63,420,98.17,383.89,103.19,378c.77-11.16,2.9-53.08,2.9-53.08l-4.38-124.38L76.64,132S95.35,123.13,78.93,123.58Z" fill="#fff" fill-rule="evenodd"/><path d="M114.71,122.8c28.23,3.51,68.08,25.4,73.21,35.37,4.32,8.38,2.13,116.87,2.13,116.87s-16,21.95-8.79,53.52c6.62,29.12,8.58,68.43,1.64,75.78-11.44-5.79-26.15-29-28.8-34.72s-3.34-38.08-5.38-45-11.17-129.43-11.17-129.43S133.29,145.7,114.71,122.8Z" fill="#fff" fill-rule="evenodd"/><path d="M43.64,133.22c14.21,25.91,43,55.44,57.84,66.71" fill="none" stroke="#c9c9c9" stroke-linecap="round" stroke-linejoin="round" stroke-width="2"/><path d="M129,125.77c12.65,17.06,15.91,46.05,6,75.49" fill="none" stroke="#c9c9c9" stroke-linecap="round" stroke-linejoin="round" stroke-width="2"/><path d="M58,205.6a11.26,11.26,0,1,1,11.25,11.26A11.26,11.26,0,0,1,58,205.6Z" fill="none" stroke="#353823" stroke-linecap="round" stroke-linejoin="round" stroke-width="3.41"/><path d="M63.48,205.6a5.75,5.75,0,1,1,5.75,5.75A5.75,5.75,0,0,1,63.48,205.6Z" fill="#353823" fill-rule="evenodd"/><path d="M66.21,194.75C58.61,166.84,58.12,128,77.74,121" fill="none" stroke="#353823" stroke-linecap="round" stroke-linejoin="round" stroke-width="3.41"/><path d="M112,116.25c11.19,4.74,21.85,26.6,24.35,45.32" fill="none" stroke="#353823" stroke-linecap="round" stroke-linejoin="round" stroke-width="3.41"/><path d="M124.27,196.73c-3.58-17.3,1.82-33,12.06-35.16s21.45,10.18,25,27.48-1.82,33-12.06,35.15S127.85,214,124.27,196.73Z" fill="none" stroke="#353823" stroke-linecap="round" stroke-linejoin="round" stroke-width="3.41"/><path d="M54.63,169.52l-4.32,84.11" fill="none" stroke="#c9c9c9" stroke-linecap="round" stroke-linejoin="round" stroke-width="2"/><path d="M42.47,172,53.7,187.66" fill="none" stroke="#c9c9c9" stroke-linecap="round" stroke-linejoin="round" stroke-width="2"/><path d="M80,246.94,36.82,257.27" fill="#606060" stroke="#c9c9c9" stroke-linecap="round" stroke-linejoin="round" stroke-width="2" fill-rule="evenodd"/><path d="M39,245.72l11,8.4" fill="none" stroke="#c9c9c9" stroke-linecap="round" stroke-linejoin="round" stroke-width="2"/><path d="M81.64,295.65c-18.16,7.31-61.3,16.05-69.45,8.81-10.9-9.69-14-109.7-8.53-136.23,3.19-15.44,19.3-25.38,27.7-29.38" fill="none" stroke="#c9c9c9" stroke-linecap="round" stroke-linejoin="round" stroke-width="2"/><path d="M68.66,299.93c-5.18-6.57-7.16-39.33-4.66-49.16" fill="none" stroke="#c9c9c9" stroke-linecap="round" stroke-linejoin="round" stroke-width="2"/><path d="M69.23,257.17a2.64,2.64,0,1,1,2.64,2.63A2.63,2.63,0,0,1,69.23,257.17Z" fill="#c9c9c9" fill-rule="evenodd"/><path d="M64.42,337.47a49.9,49.9,0,0,1-18,3.35,49.76,49.76,0,0,1-13.49-2,16.58,16.58,0,0,0-.53,3.88v20.89a16.49,16.49,0,1,0,33,0V342.68A16.4,16.4,0,0,0,64.42,337.47Z" fill="none" stroke="#c9c9c9" stroke-linecap="round" stroke-linejoin="round" stroke-width="2"/><path d="M128.42,190.52h86.23c5.23,0,8.35,4.09,7,9.13L188.36,322.11a13.07,13.07,0,0,1-12,9.13H90.18c-5.22,0-8.35-4.09-7-9.13l33.28-122.46A13.06,13.06,0,0,1,128.42,190.52Z" fill="#6367fd" fill-rule="evenodd"/><path d="M152.22,184.22h48.94a3.23,3.23,0,0,1,3.29,4.36l-2.38,8.32a6.34,6.34,0,0,1-5.78,4.36H147.35a3.24,3.24,0,0,1-3.29-4.36l2.38-8.32A6.36,6.36,0,0,1,152.22,184.22Z" fill="#3b4161" fill-rule="evenodd"/><path d="M79.75,252.94a58.58,58.58,0,0,1,12.07-5.27c6.07-5,10.53-24.75,12.14-26s7-.44,7.16,1.43c.7,6.85.33,14.85-5.74,22,17.66-11.23,19-16.21,23.86-12.45s6.61,22.1,2.44,29.68C120.2,283.25,90,286.08,80.76,286.22,78.46,276.27,78.46,264.24,79.75,252.94Z" fill="#f77f89" fill-rule="evenodd"/><path d="M41.15,653.65l68.28-2.19" fill="none" stroke="#737999" stroke-linecap="round" stroke-linejoin="round" stroke-width="1.7"/><path d="M129.17,386.65,108.31,660.59" fill="none" stroke="#737999" stroke-linecap="round" stroke-linejoin="round" stroke-width="1.7"/><path d="M110,638.58l43.12,5.06" fill="none" stroke="#737999" stroke-linecap="round" stroke-linejoin="round" stroke-width="1.7"/><path d="M164.59,527.42a17.93,17.93,0,1,1,3.41-35" fill="none" stroke="#737999" stroke-linecap="round" stroke-linejoin="round" stroke-width="1.7"/><path d="M117.65,539.69a19.79,19.79,0,0,1,1.09-39.55q1,0,1.89.09" fill="none" stroke="#737999" stroke-linecap="round" stroke-linejoin="round" stroke-width="1.7"/><path d="M132.35,238.09,116.9,250.46" fill="none" stroke="#a7464f" stroke-linecap="round" stroke-linejoin="round" stroke-width="3.41"/><path d="M134,250.89l-19.62,15.6" fill="none" stroke="#a7464f" stroke-linecap="round" stroke-linejoin="round" stroke-width="3.41"/><path d="M220.16,250.3c-.24-4.12,1-13.27,4.66-22,1.34-3.16,1.42-8.36-3.29-8.36-5.36,0-12.53,10.76-9,23.57S220.51,256.12,220.16,250.3Z" fill="#f77f89" fill-rule="evenodd"/><path d="M203.56,226.09c4.26,0,17.21,25.62,17.12,28.73s-1.44,7.84-3.45,7.6S198.4,240.77,198.4,233.5C198.4,229.29,200.45,226.09,203.56,226.09Z" fill="#f77f89" fill-rule="evenodd"/><path d="M198,240.81c5.31,0,19.31,20.42,19.41,22.76s-2.73,4.49-5.07,4.59-19.07-13.62-19.07-20C193.24,244.26,195,240.81,198,240.81Z" fill="#f77f89" fill-rule="evenodd"/><path d="M202.9,279c2.3-.11,8.7-5.83,8.7-10.33,0-1.77-4.47-6.35-6.71-6.21s-6.81,8.75-6.72,10.94S199.89,279.11,202.9,279Z" fill="#f77f89" fill-rule="evenodd"/><path d="M211.6,235.56c4.59,7.64,9.13,17.42,9.08,19.26" fill="none" stroke="#a7464f" stroke-linecap="round" stroke-linejoin="round" stroke-width="3.41"/><path d="M201.21,242.31c6.32,4.76,16.09,19.31,16.17,21.26" fill="none" stroke="#a94b53" stroke-linecap="round" stroke-linejoin="round" stroke-width="3.41"/><path d="M63.06,58.49C63.06,35.6,81.37,17,104,17s40.9,18.56,40.9,41.45S126.55,99.94,104,99.94,63.06,81.39,63.06,58.49Z" fill="#f77f89" fill-rule="evenodd"/><path d="M97.94,61.48c.44-2.64,2-4.59,3.56-4.33s2.42,2.6,2,5.24-2,4.59-3.56,4.34S97.51,64.13,97.94,61.48Z" fill="#b5545c" fill-rule="evenodd"/><path d="M128.75,63.46c.41-2.47,1.89-4.29,3.32-4.05s2.26,2.43,1.86,4.9-1.9,4.28-3.33,4S128.34,65.93,128.75,63.46Z" fill="#b5545c" fill-rule="evenodd"/><path d="M69.31,76.74c2.43,6.76,8.54,41.89,7,54.65,6.4,9.7,34.92,7,43.42-1.21-4.23-11.81-4.39-20.28-2.84-30.24C118.36,90.62,66.88,70,69.31,76.74Z" fill="#f77f89" fill-rule="evenodd"/><path d="M120.19,16c.35,9.85-8.64,19.26-33.08,23.93,2.68,6.91,2.9,17.3-10.45,19.17C61.09,61.26,59.82,41.37,59.82,41.37L83.14,13.82S119.85,6.13,120.19,16Z" fill-rule="evenodd"/><path d="M112.85,9.07c-1,8.75,9.07,30,32.39,30.58C161.82,39.65,113.82.31,112.85,9.07Z" fill-rule="evenodd"/><path d="M85.8,98.47c-2.24-2.83,1-15.73,4.53-21.64,4.26-2.51,19.37-.42,27.16-7.12,2.29-2,3.52-.52,5.3,1.67,3.13,3.84,12.54,5.83,16.06,8,.52,5.6-4.62,18.42-6.84,21.29C128.53,105.22,96.72,105.63,85.8,98.47Z" fill="#fff" fill-rule="evenodd"/><path d="M92.39,78c-2.06-3.44-11.06-18.83-13.93-22.73" fill="none" stroke="#fff" stroke-linecap="round" stroke-linejoin="round" stroke-width="3.41"/><path d="M87.57,97.65C81.48,97.65,67,78.6,65.35,72.21" fill="none" stroke="#fff" stroke-linecap="round" stroke-linejoin="round" stroke-width="3.41"/><path d="M56.06,61.89A13.33,13.33,0,1,1,69.39,75.22,13.33,13.33,0,0,1,56.06,61.89Z" fill="#f77f89" fill-rule="evenodd"/><path d="M140.29,724.16l-89.86-.62" fill="none" stroke="#4c4fd9" stroke-linecap="round" stroke-linejoin="round" stroke-width="1.7"/><path d="M142.21,728.57c-2.47-7.81-12.13-23.11-49.82-23.48V701.3" fill="none" stroke="#4c4fd9" stroke-linecap="round" stroke-linejoin="round" stroke-width="1.7"/><path d="M50.43,713.18a17,17,0,0,1,17,17c0,.45,0,.89,0,1.33" fill="none" stroke="#4c4fd9" stroke-linecap="round" stroke-linejoin="round" stroke-width="1.7"/><path d="M102.35,713.72l4.41-7.64" fill="none" stroke="#4c4fd9" stroke-linecap="round" stroke-linejoin="round" stroke-width="1.7"/><path d="M112.73,715.52l3.76-7.5" fill="none" stroke="#4c4fd9" stroke-linecap="round" stroke-linejoin="round" stroke-width="1.7"/><path d="M122.55,717.49l3.27-6.07" fill="none" stroke="#4c4fd9" stroke-linecap="round" stroke-linejoin="round" stroke-width="1.7"/><path d="M104.69,351.64l46.7-1.46" fill="none" stroke="#737999" stroke-linecap="round" stroke-linejoin="round" stroke-width="1.7"/><path d="M50.07,698.13l42.32-.69" fill="none" stroke="#4c4fd9" stroke-linecap="round" stroke-linejoin="round" stroke-width="1.7"/><path d="M93.19,694l43.52-.35" fill="none" stroke="#4c4fd9" stroke-linecap="round" stroke-linejoin="round" stroke-width="1.7"/><path d="M185.19,722.82l-46.42-1" fill="none" stroke="#4c4fd9" stroke-linecap="round" stroke-linejoin="round" stroke-width="1.7"/><path d="M150.67,703.06l-4,7.11" fill="none" stroke="#4c4fd9" stroke-linecap="round" stroke-linejoin="round" stroke-width="1.7"/><path d="M157.34,704.65l-4,7.12" fill="none" stroke="#4c4fd9" stroke-linecap="round" stroke-linejoin="round" stroke-width="1.7"/><path d="M164.46,706.61l-4,7.12" fill="none" stroke="#4c4fd9" stroke-linecap="round" stroke-linejoin="round" stroke-width="1.7"/><path d="M32.49,419.2c-15,6.28-26.26-4.91-26.35-16s4.3-77.26,4.9-83.86" fill="none" stroke="#c9c9c9" stroke-linecap="round" stroke-linejoin="round" stroke-width="2"/><path d="M189.82,174c.78-22.64-23.06-33-32.87-37.44" fill="none" stroke="#c9c9c9" stroke-linecap="round" stroke-linejoin="round" stroke-width="2"/><path d="M185.16,400c1.87-12.07,2-44.73-1.16-57.19" fill="none" stroke="#c9c9c9" stroke-linecap="round" stroke-linejoin="round" stroke-width="2"/></g></g></svg>