<svg xmlns="http://www.w3.org/2000/svg" width="586.72" height="679.28" viewBox="0 0 586.72 679.28"><g id="Layer_2" data-name="Layer 2"><g id="Layer_1-2" data-name="Layer 1"><path d="M370.19,187.78H313.34a2,2,0,0,0-2,2v28a2,2,0,0,0,2,2h56.85a2,2,0,0,0,2-2v-28A2,2,0,0,0,370.19,187.78Z" fill="none" stroke="#aadaf1" stroke-linecap="round" stroke-linejoin="round" stroke-width="2"/><path d="M339.74,155.71H282.9a2,2,0,0,0-2,2v28a2,2,0,0,0,2,2h56.84a2,2,0,0,0,2-2v-28A2,2,0,0,0,339.74,155.71Z" fill="none" stroke="#aadaf1" stroke-linecap="round" stroke-linejoin="round" stroke-width="2"/><path d="M309.29,187.78H252.45a2,2,0,0,0-2,2v28a2,2,0,0,0,2,2h56.84a2,2,0,0,0,2-2v-28A2,2,0,0,0,309.29,187.78Z" fill="none" stroke="#aadaf1" stroke-linecap="round" stroke-linejoin="round" stroke-width="2"/><path d="M399.67,219.84H342.83a2,2,0,0,0-2,2v28a2,2,0,0,0,2,2h56.84a2,2,0,0,0,2-2v-28A2,2,0,0,0,399.67,219.84Z" fill="none" stroke="#aadaf1" stroke-linecap="round" stroke-linejoin="round" stroke-width="2"/><path d="M305.38,563.85H498a4.8,4.8,0,0,1,4.8,4.8h0a4.8,4.8,0,0,1-4.8,4.79H305.38a4.8,4.8,0,0,1-4.8-4.79h0A4.8,4.8,0,0,1,305.38,563.85Z" fill="#fff" fill-rule="evenodd"/><path d="M4.79,592.73H197.44a4.78,4.78,0,0,1,4.79,4.79h0a4.78,4.78,0,0,1-4.79,4.79H4.79A4.79,4.79,0,0,1,0,597.52H0A4.79,4.79,0,0,1,4.79,592.73Z" fill="#fff" fill-rule="evenodd"/><path d="M424.5,567.59A82.26,82.26,0,0,0,349,617.28a29.33,29.33,0,0,0-36.59-.19,50.06,50.06,0,0,0-89.69-5.34A38,38,0,0,0,167,631.16c.88,0,1.71-.25,2.6-.25H550.31a30.81,30.81,0,0,0-50.71-14.47A82.2,82.2,0,0,0,424.5,567.59Z" fill="#dedede" fill-rule="evenodd"/><path d="M146.37,621.33H581.93a4.8,4.8,0,0,1,4.79,4.8h0a4.8,4.8,0,0,1-4.79,4.79H146.37a4.8,4.8,0,0,1-4.79-4.79h0A4.8,4.8,0,0,1,146.37,621.33Z" fill="#dedede" fill-rule="evenodd"/><path d="M75.67,566.4,63,584.15,89.1,616.86l12-21Z" fill="#f77f89" fill-rule="evenodd"/><path d="M61.83,576.08l-30,34.66,47.13,55s31.28-.34,41.16-.34c-.2-12-8.92-36.86-33.2-35.9,4.9-8.6,8.38-15.69,8.38-15.69Z" fill="#6367fd" fill-rule="evenodd"/><path d="M86.9,629.53c-13.57-4.19-19.74,1.27-29.26,11.37-6.65,7.06-20.51,6.46-29,2.41" fill="none" stroke="#4c4fd9" stroke-linecap="round" stroke-linejoin="round" stroke-width="2"/><path d="M55.8,673.61a91.73,91.73,0,0,0,13.81,4.67c12.42-11,19.77-37.11,17.44-48.75" fill="none" stroke="#4c4fd9" stroke-linecap="round" stroke-linejoin="round" stroke-width="2"/><path d="M49.71,589.72a20.29,20.29,0,0,1-5.66,35.37" fill="none" stroke="#4c4fd9" stroke-linecap="round" stroke-linejoin="round" stroke-width="2"/><path d="M37.06,604.67l46.39,50.66,34.37-2" fill="none" stroke="#4c4fd9" stroke-linecap="round" stroke-linejoin="round" stroke-width="2"/><path d="M150.46,419.74,71.14,565.11l30.37,35.55,143.33-147.9L213.38,408.3Z" fill="#f7d167" fill-rule="evenodd"/><path d="M118,583.65,82.62,544.06" fill="none" stroke="#ff3274" stroke-linecap="round" stroke-linejoin="round" stroke-width="2"/><path d="M213.37,408.31l-62.9,11.44-32,58.69,54.93-1.31L191.31,508l53.53-55.22Z" fill="#bf9111" fill-rule="evenodd"/><path d="M84.56,580.82c32.5-38.07,132-154.1,132-154.1" fill="none" stroke="#ff3274" stroke-linecap="round" stroke-linejoin="round" stroke-width="2"/><path d="M300.58,614.1l9.58,20,42.94-7.77L346,602.24Z" fill="#f77f89" fill-rule="evenodd"/><path d="M303.79,634.18l14.67,42s84.87-17,91.32-18.67c-12-28.2-36.62-23.47-47.42-20.77a155.19,155.19,0,0,1-7.24-15.83Z" fill="#6367fd" fill-rule="evenodd"/><path d="M361.64,627.08c1.74-5.66,5.78-9.43,9-8.43s4.46,6.38,2.72,12-5.78,9.42-9,8.43S359.9,632.73,361.64,627.08Z" fill="none" stroke="#4c4fd9" stroke-linecap="round" stroke-linejoin="round" stroke-width="2"/><path d="M375.86,626.36c4.5-4.61,10.1-6.06,12.52-3.23s.72,8.86-3.78,13.47-10.1,6.07-12.52,3.24S371.36,631,375.86,626.36Z" fill="none" stroke="#4c4fd9" stroke-linecap="round" stroke-linejoin="round" stroke-width="2"/><path d="M336.71,296.6c5.32,4.3,10.84,9.42,17.93,12.1,10.6,2.57,30,23.83,30,28.41,0,4.34-3.87,5.8-6.28,6-2.08.13-6.51-4.68-7.63-6.05,1.93,4.4,3.05,10.36.91,12.23s-5.22,2.52-7.32.1c-3.45-4-2.6-8.54-2.92-11.2-1.7-3.25-6.33-10.48-8.29-11.36-1.37.07-3.43.55-3.82,2.74s4.7,7.08,5.27,9.12c0,2.59-2.83,5.88-5.27,5.23-2.78-.74-11.38-9.09-13.28-11.37-2.56-3.07-3.72-9.76-5.09-12s-6.69-7-7.68-8S331.4,292.29,336.71,296.6Z" fill="#f77f89" fill-rule="evenodd"/><path d="M283.61,191.77c19.11,16.23,47.71,80.15,66.09,95.88-1.92,9.87-32.37,46.63-53.89,37.87C268.85,314.54,269.18,179.52,283.61,191.77Z" fill="#3b4161" fill-rule="evenodd"/><path d="M298.46,282.88l56.66,321.73-59.36,14L217.81,414.07l19.36-142.15Z" fill="#f7d167" fill-rule="evenodd"/><path d="M248.43,494.41l-27.87-73.14" fill="none" stroke="#ff3274" stroke-linecap="round" stroke-linejoin="round" stroke-width="2"/><path d="M321.57,612.53,230,324.57" fill="none" stroke="#ff3274" stroke-linecap="round" stroke-linejoin="round" stroke-width="2"/><path d="M303.48,311.42c-8,3.35-49,10.92-64.84,9.26" fill="none" stroke="#ff3274" stroke-linecap="round" stroke-linejoin="round" stroke-width="2"/><path d="M131.55,234.64l107.51,11.41c6.41.68,11,6.72,10.3,13.5L231.9,424c-.72,6.77-6.49,11.71-12.9,11L111.49,423.63c-6.41-.68-11-6.72-10.3-13.5l17.45-164.45C119.36,238.9,125.14,234,131.55,234.64Z" fill="#6367fd" fill-rule="evenodd"/><path d="M135.08,334.84a41,41,0,1,1,41,41A41,41,0,0,1,135.08,334.84Z" fill="none" stroke="#4c4fd9" stroke-linecap="round" stroke-linejoin="round" stroke-width="2"/><path d="M173.44,50.9c0-10.21,5.75-18.49,12.85-18.49s12.86,8.28,12.86,18.49-5.76,18.49-12.86,18.49S173.44,61.11,173.44,50.9Z" fill="#f77f89" fill-rule="evenodd"/><path d="M180.68,60.6a41.07,41.07,0,1,1,41.06,41.07A41.06,41.06,0,0,1,180.68,60.6Z" fill="#f77f89" fill-rule="evenodd"/><path d="M166.78,322.68c-1.91,6.37-8.1,19.62-2.21,43.33-11.16,17.25-5.95,29.4,19.61,32.45,4.3-5.25,8.61-8.69,13.41-16.27,1.56-6.82,1.42-17.29,1.56-20.13.27-5.74-8.14-28.45-6.05-38.65S168.69,316.3,166.78,322.68Z" fill="#f77f89" fill-rule="evenodd"/><path d="M217.74,115.45c-59.08,0-81.57,124.15-75.12,203.59,12.25,7.73,61.14,10.74,75.12,7.07,3-13.95,4-72.33,4.67-81.83,32.63,3.2,27,8.25,23.06,51.92,17,.59,39.9-4,57-11.18C304.87,255.08,287.27,115.45,217.74,115.45Z" fill="#3b4161" fill-rule="evenodd"/><path d="M135.08,242.17l7.8-74.65a44.27,44.27,0,0,1,48.63-39.43l8.37.87a44.27,44.27,0,0,1,39.43,48.63l-8,76.75" fill="none" stroke="#6367fd" stroke-linecap="round" stroke-linejoin="round" stroke-width="6.77"/><path d="M193.57,84.63c3.08,13.23,3.85,31.86,3.34,39.18,7.83,4.62,28.13,7.83,37.89-5.27-4.62-11.17-5.65-16.57-5.26-23S190.49,71.4,193.57,84.63Z" fill="#f77f89" fill-rule="evenodd"/><path d="M206.66,98.81c-.87-7.1,4.24-23.81,7.16-26.13,27.45,1,44.49-18.55,47.26-23.9a32.36,32.36,0,0,1,5.49,11.4c.71,2.72.09,4.63-4.56,8.53C260.83,84.74,246.28,110.19,206.66,98.81Z" fill="#fff" fill-rule="evenodd"/><path d="M216,74.37S191,53.91,183.74,52.91" fill="none" stroke="#fff" stroke-linecap="round" stroke-linejoin="round" stroke-width="3.05"/><path d="M236.39,52.94c0-3.56,1.16-6.45,2.59-6.45s2.59,2.89,2.59,6.45-1.16,6.45-2.59,6.45S236.39,56.5,236.39,52.94Z" fill="#cb5d66" fill-rule="evenodd"/><path d="M219.94,303.91c-9.51,1.37-61.25-.87-78.36-7.91" fill="none" stroke="#737999" stroke-linecap="round" stroke-linejoin="round" stroke-width="2"/><path d="M222.41,244.28c-.67-19.57,17.14-83.11-18.06-109.24" fill="none" stroke="#737999" stroke-linecap="round" stroke-linejoin="round" stroke-width="2"/><path d="M222.42,244.17l-18.07,7.74" fill="none" stroke="#737999" stroke-linecap="round" stroke-linejoin="round" stroke-width="2"/><path d="M205.14,242.45l17.33,1.22" fill="none" stroke="#737999" stroke-linecap="round" stroke-linejoin="round" stroke-width="2"/><path d="M207.71,230.26l14.78,13.28" fill="none" stroke="#737999" stroke-linecap="round" stroke-linejoin="round" stroke-width="2"/><path d="M302.52,285c1-13.09-1.76-47.14-11-81.32" fill="none" stroke="#737999" stroke-linecap="round" stroke-linejoin="round" stroke-width="2"/><path d="M336.11,271.79c-8,14.12-27,29.37-33.9,32.4" fill="none" stroke="#737999" stroke-linecap="round" stroke-linejoin="round" stroke-width="2"/><path d="M280.49,316.83c-.84-5.06-3.86-23.85-3.86-23.85" fill="none" stroke="#ff3274" stroke-linecap="round" stroke-linejoin="round" stroke-width="2"/><path d="M351.59,584.6,286.7,594.84" fill="none" stroke="#ff3274" stroke-linecap="round" stroke-linejoin="round" stroke-width="2"/><path d="M333,478.31a30.47,30.47,0,0,1-3.46.19,31.32,31.32,0,0,1-7.46-61.74" fill="none" stroke="#ff3274" stroke-linecap="round" stroke-linejoin="round" stroke-width="2"/><path d="M315.67,668.21,406.44,651" fill="none" stroke="#4c4fd9" stroke-linecap="round" stroke-linejoin="round" stroke-width="2"/><path d="M308.41,648.48a20.29,20.29,0,0,1,27.7,18.89,20.41,20.41,0,0,1-.67,5.22" fill="none" stroke="#4c4fd9" stroke-linecap="round" stroke-linejoin="round" stroke-width="2"/><path d="M207.09,97.31c-3.14-1.19-15.76-5.59-22.32-18.81" fill="none" stroke="#fff" stroke-linecap="round" stroke-linejoin="round" stroke-width="3.05"/><path d="M172.7,68.42a13.23,13.23,0,1,1,13.22,13.22A13.23,13.23,0,0,1,172.7,68.42Z" fill="#f77f89" fill-rule="evenodd"/><path d="M198.57,72.29a13.23,13.23,0,0,1-12.65,9.35" fill="none" stroke="#cb5d66" stroke-linecap="round" stroke-linejoin="round" stroke-width="2"/><path d="M175.49,60.29a13.2,13.2,0,0,1,7.66-4.8" fill="none" stroke="#cb5d66" stroke-linecap="round" stroke-linejoin="round" stroke-width="2"/><path d="M207,2.14a44.24,44.24,0,0,0-33.18,53.05l86.23-19.87A44.24,44.24,0,0,0,207,2.14Z" fill="#f2e283" fill-rule="evenodd"/><path d="M227.27,28.93l62.31-14.36c5.16-1.2,10,.81,10.88,4.46h0c.84,3.66-2.66,7.59-7.83,8.79L230.32,42.18c-5.17,1.19-10-.81-10.88-4.47h0C218.59,34.05,222.1,30.12,227.27,28.93Z" fill="#f2e283" fill-rule="evenodd"/><path d="M162.75,390.42a61.11,61.11,0,0,0,7.13-9.17" fill="none" stroke="#cb5d66" stroke-linecap="round" stroke-linejoin="round" stroke-width="2"/><path d="M173.79,396.41c4.2-4.06,10.35-12.63,13.49-17.77" fill="none" stroke="#cb5d66" stroke-linecap="round" stroke-linejoin="round" stroke-width="2"/><path d="M350.49,327.6c6.3-5.23,16.13,5.48,20.6,9.8" fill="none" stroke="#cb5d66" stroke-linecap="round" stroke-linejoin="round" stroke-width="2"/><path d="M188.21,73.8a5.62,5.62,0,0,1-2.29.48,5.7,5.7,0,1,1,2.92-10.59" fill="none" stroke="#cb5d66" stroke-linecap="round" stroke-linejoin="round" stroke-width="2"/><path d="M228.06,2.42a44.27,44.27,0,0,0-55.14,38.4" fill="none" stroke="#ff3274" stroke-linecap="round" stroke-linejoin="round" stroke-width="2"/><path d="M261.08,48.78a32.36,32.36,0,0,1,5.49,11.4c.71,2.72.09,4.63-4.56,8.53-.92,12.43-9.87,30.52-32.31,32.72" fill="none" stroke="#c9c9c9" stroke-linecap="round" stroke-linejoin="round" stroke-width="2"/></g></g></svg>