<svg xmlns="http://www.w3.org/2000/svg" width="535.36" height="714.35" viewBox="0 0 535.36 714.35"><g id="Layer_2" data-name="Layer 2"><g id="Layer_1-2" data-name="Layer 1"><path d="M501.53,404.89c-55.7-.81-83.18,200.23-78.5,214.68,1.07,3.29,3.61,6.9,6.87,10.35h49c7.4-15.81,18-48,26.33-83.56l-14-7.82,17.68-8.9a446,446,0,0,0,8.2-55.47L503.37,471,510.93,460l-8.68-2,14.85-16.09C515.5,424.46,510.92,410.85,501.53,404.89Z" fill="#aadaf1" fill-rule="evenodd"/><path d="M501.39,404.9l-50.71,225" fill="none" stroke="#72a5bd" stroke-linecap="round" stroke-linejoin="round" stroke-width="2"/><path d="M400.82,356.79c-68,25.34-20.8,248.45-7.23,272.47h71.94c.1-.19.25-.34.34-.53,8-16.27,6.06-126.36-15.62-201.47l-17.88.41,12.2-17.78C434,380.72,419.72,359.49,400.82,356.79Z" fill="#aadaf1" fill-rule="evenodd"/><path d="M339.38,629.93h195" fill="none" stroke="#72a5bd" stroke-linecap="round" stroke-linejoin="round" stroke-width="2"/><path d="M400.66,356.86,433.59,629.4" fill="none" stroke="#72a5bd" stroke-linecap="round" stroke-linejoin="round" stroke-width="2"/><path d="M389.7,601c7,5.08,28.19,22.21,29.34,26.86s-10.42,35.62-12.9,37.86-27.06,8.19-28.23,9.78-.23,6.45.94,8.84,38.77-.31,38.77-.31,48.81-48.22,48.2-51.8-55.37-53-55.37-53S382.72,595.93,389.7,601Z" fill="#f77f89" fill-rule="evenodd"/><path d="M443.91,610.12c-1.87,12.64-8.49,31.71-29.24,35.38-3.22,9.38-7.18,19-8.54,20.22-2.48,2.23-27.05,8.19-28.22,9.78s-.21,6.45.94,8.84,38.76-.31,38.76-.31,48.84-48.2,48.22-51.78C465.57,630.74,455.23,620.76,443.91,610.12Z" fill="#6367fd" fill-rule="evenodd"/><path d="M147.48,643.42C145,650,118.41,713,115.59,714.32S34,677.22,33.4,673.43s3-11.83,5.84-11.25c30.09,6,66.7,8.05,70.69.46s9.12-25.23,9.12-25.23S150,636.89,147.48,643.42Z" fill="#f77f89" fill-rule="evenodd"/><path d="M39.23,662.18c-2.88-.57-6.47,7.47-5.84,11.25s79.36,42.24,82.19,40.88c1.25-.61,7.39-13.86,13.84-28.47-24.31,3.67-37.24-7.72-42.72-18.37A269,269,0,0,1,39.23,662.18Z" fill="#6367fd" fill-rule="evenodd"/><path d="M221.91,462.07c80.34,99.61,158.41,152.68,158.41,152.68l41.56-42-120-139.62s9.84-107.78-11-127.55S171.39,399.44,221.91,462.07Z" fill="#c4c4c4" fill-rule="evenodd"/><path d="M188.06,299.13l-82.4,336.76,44.67,22s74.81-197,85.87-209c22.76-24.65,59.7-113.3,56.47-147.61S188.06,299.13,188.06,299.13Z" fill="#c4c4c4" fill-rule="evenodd"/><path d="M331.61,322.66c1.91,6.37,8.1,19.62,2.21,43.33,11.16,17.25,5.95,29.4-19.61,32.45-4.3-5.25-8.62-8.7-13.41-16.27-1.56-6.82-1.42-17.29-1.56-20.13-.27-5.74,11.39-31.13,9.3-41.33S329.69,316.28,331.61,322.66Z" fill="#f77f89" fill-rule="evenodd"/><path d="M335.64,390.4a60.47,60.47,0,0,1-7.13-9.17" fill="none" stroke="#cb5d66" stroke-linecap="round" stroke-linejoin="round" stroke-width="2"/><path d="M324.59,396.39c-4.2-4.06-10.34-12.63-13.49-17.77" fill="none" stroke="#cb5d66" stroke-linecap="round" stroke-linejoin="round" stroke-width="2"/><path d="M119.1,297.4c-5.32,4.31-10.84,9.43-17.93,12.11-10.6,2.56-30,23.83-30,28.41,0,4.34,3.87,5.8,6.28,6,2.08.13,6.51-4.68,7.63-6.05-1.93,4.4-3,10.36-.91,12.23s5.22,2.52,7.31.1c3.46-4,2.61-8.54,2.93-11.2,1.7-3.25,6.33-10.48,8.29-11.36,1.37.07,3.43.55,3.82,2.74s-4.7,7.08-5.27,9.12c0,2.59,2.82,5.88,5.27,5.23,2.78-.74,11.38-9.09,13.28-11.37,2.56-3.07,3.72-9.77,5.09-12s6.69-7,7.68-8S124.41,293.1,119.1,297.4Z" fill="#f77f89" fill-rule="evenodd"/><path d="M105.32,328.41c-6.3-5.23-16.13,5.48-20.6,9.8" fill="none" stroke="#cb5d66" stroke-linecap="round" stroke-linejoin="round" stroke-width="2"/><path d="M201.69,126c-20.6,19.69-30.69,69-36.17,100.74-18.07,17.78-54.46,57.15-54.43,66.6s17.79,25.23,22.31,25.12S180,272.3,186.54,266.92,206.6,121.29,201.69,126Z" fill="#f7d167" fill-rule="evenodd"/><path d="M194.07,45c-2.77-2.49-7.47-3.45-7.47-17.15C186.6,13.26,204,0,226.16,0c34.8,0,44.91,30.52,46.11,41.31S271.58,77.63,274,88c4.86,21.22,25.27,37.6,25.27,73.06,0,10.78-46.76,1.44-55.13.19S226,104.49,226,104.49,196.84,47.49,194.07,45Z" fill-rule="evenodd"/><path d="M247.22,77.63c-1.67,6.74-1.91,35.57-.67,45.19-5.67,4.07-26.77,3.6-31.17-.81,1.33-11.88,1.33-22.45,0-27.59S248.89,70.89,247.22,77.63Z" fill="#f77f89" fill-rule="evenodd"/><path d="M185,56.48c0-23.08,16.7-41.79,37.31-41.79s37.31,18.71,37.31,41.79-16.7,41.78-37.31,41.78S185,79.55,185,56.48Z" fill="#f77f89" fill-rule="evenodd"/><path d="M229.62,96.06c-.55-7.14-6.42-22.65-9.48-24.5S193.06,66.87,185,54.87c-4.1,3.39-7.46,9.69-7.13,11,.68,2.71,7.11,7.3,7.11,7.3s1.45,17.38,14,25.13C208.05,103.92,226,99.33,229.62,96.06Z" fill="#fff" fill-rule="evenodd"/><path d="M219.35,73.88c4.19-7,15.41-16.16,21.38-18.72" fill="none" stroke="#fff" stroke-linecap="round" stroke-linejoin="round" stroke-width="2"/><path d="M224.86,84.31s23.75,3.63,27.6-6.68" fill="none" stroke="#fff" stroke-linecap="round" stroke-linejoin="round" stroke-width="2"/><path d="M201.85,17.32c4.89,4.42,7.05,15.46,11.52,21,7.25,9,21.19,10.53,25.48,22.4S265.59,63,265.59,63l-2.88-28.22L246.08,17.39,220.22,10S197,12.89,201.85,17.32Z" fill-rule="evenodd"/><path d="M232.44,66.87A14.26,14.26,0,1,1,246.7,81.13,14.27,14.27,0,0,1,232.44,66.87Z" fill="#f77f89" fill-rule="evenodd"/><path d="M201.18,53.58c0-2.89,1.27-5.23,2.83-5.23s2.84,2.34,2.84,5.23-1.27,5.23-2.84,5.23S201.18,56.47,201.18,53.58Z" fill="#cb5d66" fill-rule="evenodd"/><path d="M231.33,107.19c61.23,0,103.89,116.1,108.33,133.71s1,81.82-.59,86.7c-6.07,1.19-28-2.83-32.56-5.57-4-6.68-5.47-57.31-7.1-61.9a26.15,26.15,0,0,0-5.92-10.36c1.78,13.62-.15,47.06-1.33,51.94s-96.22,4.65-103.43,1.63c-4.52-1.89-7.71-3.86-8.35-8.42-1-7.53,2.06-12.51,1.23-18.8s-4.36-7.26-5.43-17.5c-1.11-10.72,6.12-25,3.75-35.58C167.41,167.07,197.43,107.19,231.33,107.19Z" fill="#f7d167" fill-rule="evenodd"/><path d="M218.16,106.81h26.3c1.55,0,2.81,1.78,2.81,4v10.86c0,2.19-1.26,4-2.81,4h-26.3c-1.56,0-2.82-1.78-2.82-4V110.78C215.34,108.59,216.6,106.81,218.16,106.81Z" fill="#f7d167" fill-rule="evenodd"/><path d="M115.57,640.77l98.6-325.9" fill="none" stroke="#8d8d8d" stroke-linecap="round" stroke-linejoin="round" stroke-width="2"/><path d="M157.62,638.85l-47-23.28" fill="none" stroke="#8d8d8d" stroke-linecap="round" stroke-linejoin="round" stroke-width="2"/><path d="M209.89,464.57c-4.77,2.75-14.91,1.29-19.85-2" fill="none" stroke="#8d8d8d" stroke-linecap="round" stroke-linejoin="round" stroke-width="2"/><path d="M196.79,436.47l20.87,19.67" fill="none" stroke="#8d8d8d" stroke-linecap="round" stroke-linejoin="round" stroke-width="2"/><path d="M226.16,468.17c4.67-10.32,8.22-17.32,10-19.29,20.29-22,51.86-94.83,56.18-134.69" fill="none" stroke="#8d8d8d" stroke-linecap="round" stroke-linejoin="round" stroke-width="2"/><path d="M394.33,600.58s-134.5-128.4-140.75-133.43c-.4-9-1-26.53-7.23-31.91" fill="none" stroke="#8d8d8d" stroke-linecap="round" stroke-linejoin="round" stroke-width="2"/><path d="M298.9,441.26c-4.31,2.95-11.68,13.48-12.16,19.56" fill="none" stroke="#8d8d8d" stroke-linecap="round" stroke-linejoin="round" stroke-width="2"/><path d="M294,437.2c-2.41.68-9.37,4.64-11.15,7.85" fill="none" stroke="#8d8d8d" stroke-linecap="round" stroke-linejoin="round" stroke-width="2"/><path d="M294.21,431.45l-8.73-.65L271,425.33" fill="none" stroke="#8d8d8d" stroke-linecap="round" stroke-linejoin="round" stroke-width="2"/><path d="M293.91,431.43l-8-.6" fill="none" stroke="#8d8d8d" stroke-linecap="round" stroke-linejoin="round" stroke-width="2"/><path d="M408.88,557.6,362,601.18" fill="none" stroke="#8d8d8d" stroke-linecap="round" stroke-linejoin="round" stroke-width="2"/><path d="M181.78,324.81s34.81,6.3,56.33,3.36" fill="none" stroke="#8d8d8d" stroke-linecap="round" stroke-linejoin="round" stroke-width="2"/><path d="M185.86,305c-3-1.59-5-3.56-5.48-7.09-1-7.52,2.06-12.51,1.23-18.79s-4.36-7.26-5.43-17.5c-1.11-10.72,6.12-25,3.75-35.58a127.24,127.24,0,0,1,1.78-61.11" fill="none" stroke="#ff3274" stroke-linecap="round" stroke-linejoin="round" stroke-width="2"/><path d="M143.76,310.08c-3.66-2.09-22.42-19.18-26.91-28.36" fill="none" stroke="#ff3274" stroke-linecap="round" stroke-linejoin="round" stroke-width="2"/><path d="M138.85,306.23l-9.71,10.41" fill="none" stroke="#ff3274" stroke-linecap="round" stroke-linejoin="round" stroke-width="2"/><path d="M132.61,301.42l-9.7,10.42" fill="none" stroke="#ff3274" stroke-linecap="round" stroke-linejoin="round" stroke-width="2"/><path d="M126.55,295.82l-9.17,9.84" fill="none" stroke="#ff3274" stroke-linecap="round" stroke-linejoin="round" stroke-width="2"/><path d="M121.7,289.47l-8.94,9.59" fill="none" stroke="#ff3274" stroke-linecap="round" stroke-linejoin="round" stroke-width="2"/><path d="M340.64,314.8l-37-4" fill="none" stroke="#ff3274" stroke-linecap="round" stroke-linejoin="round" stroke-width="2"/><path d="M334.53,314.14l-1,16.57" fill="none" stroke="#ff3274" stroke-linecap="round" stroke-linejoin="round" stroke-width="2"/><path d="M325.28,313.13l-1.42,16.42" fill="none" stroke="#ff3274" stroke-linecap="round" stroke-linejoin="round" stroke-width="2"/><path d="M316.18,312.14l-1.07,15.68" fill="none" stroke="#ff3274" stroke-linecap="round" stroke-linejoin="round" stroke-width="2"/><path d="M342.64,271.94a23.75,23.75,0,0,1-9-45.72" fill="none" stroke="#ff3274" stroke-linecap="round" stroke-linejoin="round" stroke-width="2"/><path d="M293.5,252.77c-3.28-5.38-41.46-65.62-43.44-68" fill="none" stroke="#ff3274" stroke-linecap="round" stroke-linejoin="round" stroke-width="2"/><path d="M241.4,185.06l8.7-.52" fill="none" stroke="#ff3274" stroke-linecap="round" stroke-linejoin="round" stroke-width="2"/><path d="M242.67,194.72,250,184.55" fill="none" stroke="#ff3274" stroke-linecap="round" stroke-linejoin="round" stroke-width="2"/><path d="M248.83,200l1.13-15.3" fill="none" stroke="#ff3274" stroke-linecap="round" stroke-linejoin="round" stroke-width="2"/><path d="M198.79,279l26.85-13.11" fill="none" stroke="#ff3274" stroke-linecap="round" stroke-linejoin="round" stroke-width="2"/><path d="M225.18,262.36l-35.41,7.11" fill="none" stroke="#ff3274" stroke-linecap="round" stroke-linejoin="round" stroke-width="2"/><path d="M194.18,264.09l29.61-19.5" fill="none" stroke="#ff3274" stroke-linecap="round" stroke-linejoin="round" stroke-width="2"/><path d="M231.89,125.61H218.16c-1.56,0-2.82-1.78-2.82-4V110.78c0-2.19,1.26-4,2.82-4h26.3a2.57,2.57,0,0,1,2.13,1.38" fill="none" stroke="#ff3274" stroke-linecap="round" stroke-linejoin="round" stroke-width="2"/><path d="M222.26,106.81l.18,18.8" fill="none" stroke="#ff3274" stroke-linecap="round" stroke-linejoin="round" stroke-width="2"/><path d="M230,107.07l.09,9.14.09,9.66" fill="none" stroke="#ff3274" stroke-linecap="round" stroke-linejoin="round" stroke-width="2"/><path d="M238.66,107.07l.09,9.14.09,9.66" fill="none" stroke="#ff3274" stroke-linecap="round" stroke-linejoin="round" stroke-width="2"/><path d="M121.05,704.26,35.2,665.77" fill="none" stroke="#fff" stroke-linecap="round" stroke-linejoin="round" stroke-width="2"/><path d="M460.76,626.38l-46.06,49.5-37,4.89" fill="none" stroke="#fff" stroke-linecap="round" stroke-linejoin="round" stroke-width="2"/><path d="M12.18,86.87c-6.35-2.68-5.55-17.74,1.2-23.51S37.08,52.6,43.75,34.62C46.17,29.73,53.4,36.85,55.29,49,56.34,77.91,26.11,92.75,12.18,86.87Z" fill="#aadaf1" fill-rule="evenodd"/><path d="M42.38,52.07C41.37,58.45,28,87.21,1,94.53" fill="none" stroke="#72a5bd" stroke-linecap="round" stroke-linejoin="round" stroke-width="2"/><path d="M185,54.87c-4.1,3.39-7.46,9.69-7.13,11,.68,2.71,7.11,7.3,7.11,7.3s1.45,17.38,14,25.13c4.41,2.72,10.91,3,16.85,2.25" fill="none" stroke="#c9c9c9" stroke-linecap="round" stroke-linejoin="round" stroke-width="2"/><path d="M467.57,623.22c5.15-24.47,3.3-103.82-10.79-169.66" fill="none" stroke="#72a5bd" stroke-linecap="round" stroke-linejoin="round" stroke-width="2"/></g></g></svg>